<?xml version="1.0" encoding="utf-8"?>
<!-- Generator: Adobe Illustrator 27.5.0, SVG Export Plug-In . SVG Version: 6.00 Build 0)  -->
<svg version="1.1" xmlns="http://www.w3.org/2000/svg" xmlns:xlink="http://www.w3.org/1999/xlink" x="0px" y="0px"
	 viewBox="0 0 750 500" style="enable-background:new 0 0 750 500;" xml:space="preserve">
<g id="Background_Complete">
	<g>
		<g>
			<g>
				<g>
					<g>
						<g>
							<g>
								<g>
									<path style="fill:#F5F5F5;" d="M437.021,232.278c0.54-3.921-4.993-7.146-9.151-7.481c-1.983-0.16-4.042,0.143-5.921-0.511
										c-4.07-1.418-5.695-6.676-9.666-8.351c-2.969-1.252-6.387-0.137-9.265,1.311c-2.878,1.449-5.722,3.271-8.938,3.477
										c-2.797,0.179-5.834-0.858-8.281,0.508c-1.823,1.018-2.779,3.119-4.459,4.359c-1.644,1.213-3.789,1.47-5.829,1.581
										c-2.04,0.111-4.152,0.132-6.01,0.982c-1.858,0.851-3.395,2.815-3.009,4.821L437.021,232.278z"/>
								</g>
							</g>
						</g>
					</g>
				</g>
			</g>
		</g>
	</g>
	<g>
		<g>
			<g>
				<g>
					<g>
						<g>
							<g>
								<g>
									<g>
										<g>
											<g>
												<polygon style="fill:#EBEBEB;" points="156.637,365.413 138.35,356.5 132.287,329.762 127.181,330.952 131.609,356.213 
													114.083,346.15 110.243,349.888 133.44,362.417 156.637,371.644 												"/>
											</g>
										</g>
									</g>
								</g>
							</g>
						</g>
					</g>
				</g>
			</g>
			<g>
				<g>
					<g>
						<g>
							<g>
								<g>
									<g>
										<g>
											<g>
												<g>
													<polygon style="fill:#EBEBEB;" points="164.032,439.706 150.632,439.706 154.101,326.407 167.501,326.407 
																											"/>
												</g>
											</g>
										</g>
									</g>
								</g>
							</g>
						</g>
					</g>
				</g>
				<g>
					<g>
						<g>
							<g>
								<g>
									<g>
										<g>
											<g>
												<g>
													<path style="fill:#F5F5F5;" d="M157.143,44.58c0,1.553-35.965,97.81-35.965,97.81l17.982-15.525l-25.907,67.277
														l17.068-20.183l-20.116,84.355l9.753-8.798l-17.068,59.514l14.63-15.525l-14.63,44.506l115.82-7.245l-27.431-83.837
														l16.566,15.526l-21.443-61.067l10.972,5.175L172.383,127.9l11.582,6.728L157.143,44.58z"/>
												</g>
											</g>
										</g>
									</g>
								</g>
							</g>
						</g>
					</g>
				</g>
			</g>
		</g>
		<g>
			<g>
				<g>
					<g>
						<g>
							<g>
								<g>
									<g>
										<g>
											<g>
												<path style="fill:#EBEBEB;" d="M161.027,216.391c0.038,0.014-0.165,0.514-0.574,1.427
													c-0.462,0.996-1.068,2.303-1.81,3.904c-1.643,3.414-3.884,8.071-6.484,13.477l-0.285,0.592l-0.36-0.566
													c-1.695-2.667-3.332-5.682-4.727-8.92c-0.517-1.198-0.986-2.391-1.396-3.531l0.708,0.023
													c-3.197,6.916-6.324,12.94-8.682,17.217c-1.178,2.139-2.157,3.843-2.852,5.009c-0.324,0.527-0.593,0.966-0.817,1.332
													c-0.194,0.301-0.305,0.454-0.327,0.445c-0.044-0.018,0.279-0.68,0.897-1.876c0.667-1.284,1.556-2.996,2.642-5.086
													c2.234-4.318,5.271-10.361,8.441-17.273l0.39-0.851l0.317,0.874c0.41,1.128,0.877,2.309,1.389,3.497
													c1.382,3.208,2.991,6.201,4.648,8.855l-0.645,0.026c2.701-5.37,5.029-9.996,6.735-13.388c0.82-1.574,1.49-2.859,2-3.837
													C160.712,216.851,160.989,216.377,161.027,216.391z"/>
											</g>
										</g>
									</g>
								</g>
							</g>
						</g>
					</g>
				</g>
			</g>
		</g>
		<g>
			<g>
				<g>
					<g>
						<g>
							<g>
								<g>
									<g>
										<g>
											<g>
												<path style="fill:#EBEBEB;" d="M173.367,180.461c-0.04,0.014-0.265-0.353-0.653-1.039c-0.446-0.787-1-1.766-1.665-2.939
													c-1.435-2.502-3.537-5.992-6.267-9.894l0.662-0.078c-0.578,1.894-1.202,3.934-1.849,6.049
													c-0.408,1.318-0.808,2.607-1.193,3.848l-0.268,0.864l-0.431-0.814c-2.469-4.667-4.608-8.777-6.109-11.728
													c-0.694-1.396-1.273-2.559-1.733-3.483c-0.392-0.821-0.587-1.278-0.545-1.294c0.042-0.016,0.318,0.409,0.785,1.202
													c0.514,0.903,1.161,2.041,1.937,3.405c1.62,2.905,3.844,6.983,6.343,11.638l-0.698,0.05
													c0.381-1.242,0.777-2.532,1.181-3.851c0.657-2.112,1.291-4.151,1.879-6.042l0.223-0.718l0.44,0.64
													c2.705,3.942,4.732,7.487,6.056,10.043c0.663,1.278,1.157,2.307,1.476,3.02
													C173.257,180.053,173.406,180.448,173.367,180.461z"/>
											</g>
										</g>
									</g>
								</g>
							</g>
						</g>
					</g>
				</g>
			</g>
		</g>
		<g>
			<g>
				<g>
					<g>
						<g>
							<g>
								<g>
									<g>
										<g>
											<g>
												<path style="fill:#EBEBEB;" d="M156.96,106.717c0.08,0.039-0.694,1.321-2.044,3.419
													c-1.35,2.098-3.277,5.011-5.503,8.313l-0.507,0.752l-0.181-0.854c-0.203-0.957-0.413-1.948-0.627-2.962
													c-0.361-1.752-0.707-3.436-1.028-4.997l0.658,0.108c-2.068,2.781-3.867,5.158-5.167,6.831
													c-1.3,1.673-2.101,2.641-2.172,2.603c-0.072-0.037,0.598-1.075,1.792-2.804c1.194-1.729,2.912-4.149,4.937-6.952
													l0.491-0.679l0.168,0.787c0.333,1.56,0.692,3.241,1.066,4.992c0.21,1.014,0.416,2.006,0.614,2.964l-0.687-0.102
													c2.254-3.288,4.262-6.162,5.726-8.204C155.96,107.888,156.88,106.678,156.96,106.717z"/>
											</g>
										</g>
									</g>
								</g>
							</g>
						</g>
					</g>
				</g>
			</g>
		</g>
	</g>
	<g>
		<g>
			<g>
				<g>
					<g>
						<g>
							<g>
								<g>
									<g>
										<g>
											<g>
												<polygon style="fill:#EBEBEB;" points="597.981,371.814 581.247,363.659 575.699,339.191 571.027,340.28 
													575.078,363.395 559.04,354.187 555.527,357.608 576.754,369.073 597.981,377.516 												"/>
											</g>
										</g>
									</g>
								</g>
							</g>
						</g>
					</g>
				</g>
			</g>
			<g>
				<g>
					<g>
						<g>
							<g>
								<g>
									<g>
										<g>
											<g>
												<g>
													<polygon style="fill:#EBEBEB;" points="604.748,439.797 592.486,439.797 595.66,336.12 607.922,336.12 													
														"/>
												</g>
											</g>
										</g>
									</g>
								</g>
							</g>
						</g>
					</g>
				</g>
				<g>
					<g>
						<g>
							<g>
								<g>
									<g>
										<g>
											<g>
												<g>
													<path style="fill:#F5F5F5;" d="M598.444,78.228c0,1.421-32.911,89.504-32.911,89.504l16.455-14.207l-23.707,61.563
														l15.619-18.469l-18.408,77.191l8.925-8.051l-15.619,54.46l13.387-14.207l-13.387,40.726l105.984-6.63l-25.102-76.717
														l15.16,14.207l-19.622-55.881l10.04,4.736l-22.87-71.982l10.598,6.156L598.444,78.228z"/>
												</g>
											</g>
										</g>
									</g>
								</g>
							</g>
						</g>
					</g>
				</g>
			</g>
		</g>
		<g>
			<g>
				<g>
					<g>
						<g>
							<g>
								<g>
									<g>
										<g>
											<g>
												<path style="fill:#EBEBEB;" d="M601.998,235.447c0.035,0.013-0.151,0.47-0.525,1.306
													c-0.423,0.912-0.977,2.108-1.656,3.573c-1.503,3.124-3.554,7.386-5.933,12.332l-0.261,0.542l-0.329-0.518
													c-1.551-2.44-3.049-5.2-4.326-8.163c-0.473-1.097-0.903-2.188-1.278-3.231l0.648,0.021
													c-2.926,6.329-5.787,11.842-7.945,15.755c-1.078,1.957-1.974,3.517-2.609,4.584c-0.296,0.482-0.542,0.884-0.748,1.219
													c-0.177,0.275-0.28,0.415-0.299,0.407c-0.04-0.016,0.255-0.622,0.821-1.717c0.61-1.175,1.424-2.742,2.417-4.654
													c2.044-3.951,4.823-9.482,7.724-15.806l0.357-0.779l0.29,0.8c0.375,1.032,0.802,2.113,1.271,3.199
													c1.265,2.936,2.737,5.674,4.253,8.103l-0.59,0.024c2.472-4.914,4.602-9.147,6.163-12.251
													c0.75-1.44,1.363-2.616,1.83-3.511C601.71,235.869,601.963,235.435,601.998,235.447z"/>
											</g>
										</g>
									</g>
								</g>
							</g>
						</g>
					</g>
				</g>
			</g>
		</g>
		<g>
			<g>
				<g>
					<g>
						<g>
							<g>
								<g>
									<g>
										<g>
											<g>
												<path style="fill:#EBEBEB;" d="M613.29,202.57c-0.037,0.013-0.243-0.323-0.598-0.951
													c-0.408-0.72-0.915-1.616-1.524-2.69c-1.313-2.29-3.236-5.484-5.735-9.053l0.606-0.071
													c-0.529,1.733-1.1,3.6-1.692,5.536c-0.374,1.206-0.74,2.385-1.091,3.521l-0.245,0.791l-0.394-0.744
													c-2.259-4.271-4.217-8.031-5.59-10.732c-0.635-1.277-1.165-2.342-1.586-3.187c-0.359-0.751-0.537-1.169-0.499-1.184
													c0.039-0.015,0.291,0.374,0.718,1.1c0.47,0.827,1.062,1.867,1.772,3.116c1.483,2.659,3.518,6.39,5.804,10.65
													l-0.639,0.046c0.349-1.137,0.711-2.317,1.081-3.524c0.601-1.933,1.181-3.798,1.72-5.529l0.204-0.657l0.402,0.586
													c2.475,3.607,4.33,6.852,5.542,9.19c0.607,1.169,1.059,2.111,1.351,2.764
													C613.189,202.196,613.326,202.557,613.29,202.57z"/>
											</g>
										</g>
									</g>
								</g>
							</g>
						</g>
					</g>
				</g>
			</g>
		</g>
		<g>
			<g>
				<g>
					<g>
						<g>
							<g>
								<g>
									<g>
										<g>
											<g>
												<path style="fill:#EBEBEB;" d="M598.277,135.088c0.073,0.036-0.635,1.209-1.87,3.129
													c-1.236,1.92-2.999,4.586-5.036,7.607l-0.464,0.688l-0.165-0.782c-0.185-0.875-0.378-1.782-0.574-2.71
													c-0.33-1.604-0.647-3.144-0.941-4.573l0.603,0.098c-1.892,2.544-3.538,4.72-4.728,6.251
													c-1.19,1.531-1.923,2.417-1.988,2.382c-0.065-0.034,0.547-0.984,1.64-2.566c1.092-1.582,2.664-3.797,4.518-6.362
													l0.449-0.622l0.154,0.72c0.305,1.427,0.633,2.966,0.975,4.568c0.192,0.928,0.381,1.836,0.562,2.712l-0.629-0.094
													c2.063-3.009,3.9-5.639,5.24-7.507C597.361,136.16,598.204,135.053,598.277,135.088z"/>
											</g>
										</g>
									</g>
								</g>
							</g>
						</g>
					</g>
				</g>
			</g>
		</g>
	</g>
	<g>
		<g>
			<g>
				<g>
					<g>
						<g>
							<g>
								<g>
									<g>
										<g>
											<g>
												<polygon style="fill:#EBEBEB;" points="267.822,377.655 253.025,370.444 248.118,348.807 243.987,349.77 
													247.569,370.211 233.387,362.068 230.281,365.093 249.051,375.231 267.822,382.698 												"/>
											</g>
										</g>
									</g>
								</g>
							</g>
						</g>
					</g>
				</g>
			</g>
			<g>
				<g>
					<g>
						<g>
							<g>
								<g>
									<g>
										<g>
											<g>
												<g>
													<polygon style="fill:#EBEBEB;" points="273.806,437.773 262.963,437.773 265.77,346.092 276.613,346.092 													
														"/>
												</g>
											</g>
										</g>
									</g>
								</g>
							</g>
						</g>
					</g>
				</g>
				<g>
					<g>
						<g>
							<g>
								<g>
									<g>
										<g>
											<g>
												<g>
													<path style="fill:#F5F5F5;" d="M268.232,118.039c0,1.256-29.103,79.148-29.103,79.148l14.551-12.563l-20.964,54.44
														l13.811-16.332l-16.278,68.259l7.892-7.119l-13.812,48.159l11.839-12.563l-11.839,36.014l93.721-5.863l-22.197-67.841
														l13.406,12.563l-17.352-49.415l8.879,4.188l-20.224-63.653l9.372,5.444L268.232,118.039z"/>
												</g>
											</g>
										</g>
									</g>
								</g>
							</g>
						</g>
					</g>
				</g>
			</g>
		</g>
		<g>
			<g>
				<g>
					<g>
						<g>
							<g>
								<g>
									<g>
										<g>
											<g>
												<path style="fill:#EBEBEB;" d="M271.374,257.067c0.031,0.011-0.133,0.416-0.464,1.154
													c-0.374,0.806-0.864,1.864-1.464,3.16c-1.329,2.763-3.143,6.531-5.247,10.905l-0.231,0.479l-0.291-0.458
													c-1.371-2.158-2.696-4.598-3.825-7.218c-0.418-0.97-0.798-1.935-1.13-2.857l0.573,0.018
													c-2.587,5.597-5.117,10.471-7.025,13.932c-0.953,1.731-1.745,3.11-2.307,4.053c-0.262,0.427-0.48,0.782-0.661,1.078
													c-0.157,0.243-0.247,0.367-0.265,0.36c-0.036-0.015,0.226-0.551,0.726-1.518c0.54-1.039,1.259-2.424,2.138-4.115
													c1.807-3.494,4.265-8.384,6.83-13.977l0.316-0.689l0.257,0.707c0.332,0.913,0.71,1.869,1.124,2.829
													c1.118,2.596,2.42,5.018,3.761,7.165l-0.522,0.021c2.186-4.345,4.069-8.089,5.45-10.833
													c0.664-1.274,1.205-2.313,1.618-3.105C271.12,257.44,271.344,257.056,271.374,257.067z"/>
											</g>
										</g>
									</g>
								</g>
							</g>
						</g>
					</g>
				</g>
			</g>
		</g>
		<g>
			<g>
				<g>
					<g>
						<g>
							<g>
								<g>
									<g>
										<g>
											<g>
												<path style="fill:#EBEBEB;" d="M281.36,227.993c-0.033,0.012-0.215-0.286-0.528-0.841
													c-0.361-0.637-0.809-1.429-1.348-2.379c-1.161-2.025-2.862-4.849-5.071-8.006l0.536-0.063
													c-0.468,1.532-0.973,3.184-1.496,4.895c-0.331,1.066-0.654,2.109-0.965,3.114l-0.217,0.699l-0.349-0.658
													c-1.998-3.776-3.729-7.102-4.943-9.49c-0.562-1.129-1.031-2.071-1.403-2.819c-0.318-0.664-0.475-1.034-0.441-1.047
													c0.034-0.013,0.257,0.331,0.635,0.972c0.416,0.731,0.939,1.651,1.567,2.755c1.311,2.351,3.111,5.651,5.133,9.417
													l-0.565,0.041c0.308-1.005,0.628-2.049,0.956-3.116c0.531-1.709,1.044-3.359,1.521-4.89l0.18-0.581l0.356,0.518
													c2.189,3.19,3.829,6.059,4.901,8.127c0.537,1.034,0.936,1.867,1.195,2.444
													C281.271,227.663,281.391,227.982,281.36,227.993z"/>
											</g>
										</g>
									</g>
								</g>
							</g>
						</g>
					</g>
				</g>
			</g>
		</g>
		<g>
			<g>
				<g>
					<g>
						<g>
							<g>
								<g>
									<g>
										<g>
											<g>
												<path style="fill:#EBEBEB;" d="M268.084,168.32c0.065,0.032-0.562,1.069-1.654,2.767
													c-1.093,1.697-2.652,4.055-4.453,6.727l-0.41,0.608l-0.146-0.691c-0.164-0.774-0.334-1.576-0.508-2.397
													c-0.292-1.418-0.572-2.78-0.832-4.044l0.533,0.087c-1.673,2.25-3.129,4.174-4.181,5.528
													c-1.052,1.354-1.7,2.137-1.758,2.107c-0.058-0.03,0.484-0.87,1.45-2.269c0.966-1.399,2.356-3.358,3.995-5.626
													l0.397-0.55l0.136,0.637c0.269,1.262,0.56,2.623,0.862,4.039c0.17,0.821,0.337,1.624,0.497,2.398l-0.556-0.083
													c1.824-2.661,3.449-4.986,4.633-6.639C267.274,169.268,268.019,168.288,268.084,168.32z"/>
											</g>
										</g>
									</g>
								</g>
							</g>
						</g>
					</g>
				</g>
			</g>
		</g>
	</g>
	<g>
		<g>
			<g>
				<g>
					<g>
						<g>
							<g>
								<g>
									<g>
										<g>
											<g>
												<polygon style="fill:#EBEBEB;" points="494.358,381.52 479.946,374.496 475.167,353.421 471.143,354.359 
													474.632,374.269 460.819,366.338 457.793,369.284 476.076,379.159 494.358,386.431 												"/>
											</g>
										</g>
									</g>
								</g>
							</g>
						</g>
					</g>
				</g>
			</g>
			<g>
				<g>
					<g>
						<g>
							<g>
								<g>
									<g>
										<g>
											<g>
												<g>
													<polygon style="fill:#EBEBEB;" points="500.187,440.075 489.625,440.075 492.36,350.777 502.921,350.777 													
														"/>
												</g>
											</g>
										</g>
									</g>
								</g>
							</g>
						</g>
					</g>
				</g>
				<g>
					<g>
						<g>
							<g>
								<g>
									<g>
										<g>
											<g>
												<g>
													<path style="fill:#F5F5F5;" d="M494.757,128.651c0,1.224-28.346,77.091-28.346,77.091l14.173-12.237l-20.419,53.025
														l13.452-15.908l-15.855,66.485l7.687-6.934l-13.452,46.907l11.531-12.236l-11.531,35.078l91.285-5.711l-21.62-66.077
														l13.057,12.237l-16.9-48.131l8.648,4.079l-19.698-61.999l9.129,5.303L494.757,128.651z"/>
												</g>
											</g>
										</g>
									</g>
								</g>
							</g>
						</g>
					</g>
				</g>
			</g>
		</g>
		<g>
			<g>
				<g>
					<g>
						<g>
							<g>
								<g>
									<g>
										<g>
											<g>
												<path style="fill:#EBEBEB;" d="M497.818,264.066c0.03,0.011-0.13,0.405-0.452,1.124
													c-0.364,0.785-0.841,1.815-1.426,3.077c-1.295,2.691-3.061,6.362-5.111,10.622l-0.225,0.467l-0.284-0.446
													c-1.336-2.102-2.626-4.478-3.726-7.03c-0.407-0.944-0.777-1.884-1.1-2.783l0.558,0.018
													c-2.52,5.451-4.984,10.199-6.843,13.569c-0.928,1.686-1.7,3.029-2.248,3.948c-0.255,0.415-0.467,0.761-0.644,1.05
													c-0.153,0.237-0.241,0.358-0.258,0.351c-0.035-0.014,0.22-0.536,0.707-1.478c0.525-1.012,1.226-2.362,2.082-4.008
													c1.76-3.403,4.154-8.167,6.652-13.614l0.308-0.671l0.25,0.689c0.323,0.889,0.691,1.82,1.095,2.756
													c1.09,2.529,2.358,4.887,3.663,6.979l-0.508,0.021c2.129-4.232,3.963-7.879,5.308-10.552
													c0.646-1.241,1.174-2.253,1.576-3.024C497.571,264.429,497.788,264.056,497.818,264.066z"/>
											</g>
										</g>
									</g>
								</g>
							</g>
						</g>
					</g>
				</g>
			</g>
		</g>
		<g>
			<g>
				<g>
					<g>
						<g>
							<g>
								<g>
									<g>
										<g>
											<g>
												<path style="fill:#EBEBEB;" d="M507.545,235.748c-0.032,0.011-0.209-0.278-0.515-0.819
													c-0.351-0.62-0.788-1.392-1.312-2.317c-1.131-1.972-2.788-4.723-4.94-7.798l0.522-0.061
													c-0.456,1.493-0.948,3.101-1.457,4.768c-0.322,1.039-0.637,2.054-0.94,3.033l-0.211,0.681l-0.339-0.641
													c-1.946-3.678-3.632-6.918-4.815-9.244c-0.547-1.1-1.004-2.017-1.366-2.745c-0.309-0.647-0.463-1.007-0.43-1.02
													c0.033-0.013,0.25,0.322,0.619,0.947c0.405,0.712,0.915,1.608,1.527,2.684c1.277,2.29,3.03,5.504,4.999,9.173
													l-0.55,0.04c0.3-0.979,0.612-1.996,0.931-3.035c0.518-1.665,1.017-3.271,1.481-4.763l0.176-0.566l0.346,0.504
													c2.132,3.107,3.729,5.901,4.773,7.915c0.523,1.007,0.912,1.819,1.164,2.38
													C507.458,235.426,507.575,235.737,507.545,235.748z"/>
											</g>
										</g>
									</g>
								</g>
							</g>
						</g>
					</g>
				</g>
			</g>
		</g>
		<g>
			<g>
				<g>
					<g>
						<g>
							<g>
								<g>
									<g>
										<g>
											<g>
												<path style="fill:#EBEBEB;" d="M494.614,177.626c0.063,0.031-0.547,1.042-1.611,2.695
													c-1.064,1.653-2.583,3.95-4.337,6.552l-0.399,0.593l-0.142-0.673c-0.16-0.754-0.325-1.535-0.495-2.335
													c-0.284-1.381-0.557-2.708-0.811-3.939l0.519,0.085c-1.63,2.192-3.048,4.065-4.072,5.384
													c-1.025,1.318-1.656,2.081-1.712,2.052c-0.056-0.03,0.472-0.847,1.412-2.21c0.941-1.363,2.295-3.27,3.891-5.479
													l0.387-0.535l0.132,0.62c0.262,1.229,0.545,2.555,0.84,3.934c0.166,0.799,0.328,1.581,0.484,2.336l-0.542-0.081
													c1.777-2.592,3.359-4.857,4.513-6.466C493.825,178.549,494.55,177.595,494.614,177.626z"/>
											</g>
										</g>
									</g>
								</g>
							</g>
						</g>
					</g>
				</g>
			</g>
		</g>
	</g>
	<g>
		<g>
			<g>
				<g>
					<g>
						<g>
							<g>
								<g>
									<g>
										<g>
											<g>
												<polygon style="fill:#EBEBEB;" points="685.81,378.828 672.443,372.313 668.01,352.768 664.279,353.638 
													667.515,372.103 654.704,364.748 651.897,367.48 668.853,376.638 685.81,383.383 												"/>
											</g>
										</g>
									</g>
								</g>
							</g>
						</g>
					</g>
				</g>
			</g>
			<g>
				<g>
					<g>
						<g>
							<g>
								<g>
									<g>
										<g>
											<g>
												<g>
													<polygon style="fill:#EBEBEB;" points="691.215,433.134 681.42,433.134 683.956,350.316 693.751,350.316 													
														"/>
												</g>
											</g>
										</g>
									</g>
								</g>
							</g>
						</g>
					</g>
				</g>
				<g>
					<g>
						<g>
							<g>
								<g>
									<g>
										<g>
											<g>
												<g>
													<path style="fill:#F5F5F5;" d="M686.18,144.31c0,1.135-26.289,71.496-26.289,71.496l13.145-11.349l-18.937,49.177
														l12.476-14.753l-14.704,61.66l7.129-6.431l-12.476,43.503l10.694-11.349l-10.694,32.532l84.66-5.296l-20.051-61.282
														l12.109,11.349l-15.674-44.638l8.02,3.783l-18.269-57.499l8.466,4.918L686.18,144.31z"/>
												</g>
											</g>
										</g>
									</g>
								</g>
							</g>
						</g>
					</g>
				</g>
			</g>
		</g>
		<g>
			<g>
				<g>
					<g>
						<g>
							<g>
								<g>
									<g>
										<g>
											<g>
												<path style="fill:#EBEBEB;" d="M689.018,269.898c0.028,0.01-0.12,0.376-0.419,1.043
													c-0.338,0.728-0.78,1.684-1.323,2.854c-1.201,2.496-2.839,5.9-4.74,9.851l-0.208,0.433l-0.263-0.414
													c-1.239-1.949-2.436-4.154-3.455-6.52c-0.378-0.876-0.721-1.748-1.021-2.581l0.517,0.017
													c-2.337,5.056-4.623,9.459-6.346,12.585c-0.861,1.563-1.576,2.81-2.084,3.662c-0.237,0.385-0.433,0.706-0.597,0.973
													c-0.141,0.22-0.223,0.332-0.239,0.325c-0.032-0.013,0.204-0.497,0.656-1.371c0.487-0.938,1.138-2.19,1.931-3.717
													c1.633-3.156,3.853-7.574,6.17-12.626l0.285-0.622l0.232,0.639c0.299,0.824,0.641,1.688,1.015,2.556
													c1.01,2.345,2.186,4.533,3.397,6.472l-0.471,0.019c1.974-3.925,3.676-7.307,4.923-9.786
													c0.599-1.151,1.089-2.09,1.462-2.805C688.789,270.234,688.99,269.888,689.018,269.898z"/>
											</g>
										</g>
									</g>
								</g>
							</g>
						</g>
					</g>
				</g>
			</g>
		</g>
		<g>
			<g>
				<g>
					<g>
						<g>
							<g>
								<g>
									<g>
										<g>
											<g>
												<path style="fill:#EBEBEB;" d="M698.039,243.635c-0.029,0.01-0.194-0.258-0.477-0.76
													c-0.326-0.575-0.731-1.29-1.217-2.148c-1.049-1.829-2.585-4.38-4.581-7.232l0.484-0.057
													c-0.423,1.384-0.879,2.876-1.351,4.422c-0.299,0.963-0.591,1.905-0.872,2.813l-0.196,0.632l-0.315-0.595
													c-1.805-3.411-3.368-6.416-4.465-8.573c-0.508-1.02-0.931-1.87-1.267-2.546c-0.287-0.6-0.429-0.934-0.398-0.946
													c0.031-0.012,0.232,0.299,0.574,0.878c0.376,0.66,0.849,1.492,1.416,2.489c1.184,2.124,2.81,5.104,4.636,8.507
													l-0.51,0.037c0.278-0.908,0.568-1.851,0.863-2.815c0.48-1.544,0.944-3.034,1.374-4.417l0.163-0.525l0.321,0.468
													c1.977,2.882,3.459,5.473,4.427,7.341c0.485,0.934,0.846,1.687,1.079,2.208
													C697.958,243.336,698.067,243.625,698.039,243.635z"/>
											</g>
										</g>
									</g>
								</g>
							</g>
						</g>
					</g>
				</g>
			</g>
		</g>
		<g>
			<g>
				<g>
					<g>
						<g>
							<g>
								<g>
									<g>
										<g>
											<g>
												<path style="fill:#EBEBEB;" d="M686.046,189.73c0.059,0.029-0.507,0.966-1.494,2.499
													c-0.987,1.533-2.395,3.663-4.023,6.077l-0.37,0.55l-0.132-0.624c-0.148-0.699-0.302-1.424-0.459-2.165
													c-0.263-1.281-0.517-2.512-0.752-3.653l0.481,0.079c-1.511,2.033-2.826,3.77-3.777,4.993
													c-0.951,1.223-1.536,1.93-1.588,1.903c-0.052-0.027,0.437-0.786,1.31-2.05c0.873-1.264,2.128-3.033,3.609-5.082
													l0.359-0.497l0.123,0.575c0.243,1.14,0.506,2.369,0.779,3.649c0.154,0.741,0.304,1.467,0.449,2.166l-0.502-0.075
													c1.648-2.403,3.115-4.504,4.185-5.997C685.315,190.587,685.988,189.702,686.046,189.73z"/>
											</g>
										</g>
									</g>
								</g>
							</g>
						</g>
					</g>
				</g>
			</g>
		</g>
	</g>
	<g>
		<g>
			<g>
				<g>
					<g>
						<g>
							<g>
								<g>
									<path style="fill:#EBEBEB;" d="M284.309,77.532c0.54-3.921-4.993-7.146-9.151-7.481c-1.983-0.16-4.042,0.143-5.921-0.511
										c-4.07-1.418-5.695-6.676-9.666-8.351c-2.969-1.252-6.387-0.138-9.265,1.311c-2.878,1.448-5.722,3.271-8.938,3.477
										c-2.797,0.179-5.834-0.858-8.281,0.508c-1.824,1.018-2.779,3.119-4.459,4.359c-1.644,1.213-3.789,1.47-5.829,1.581
										c-2.04,0.111-4.152,0.132-6.01,0.982c-1.858,0.851-3.395,2.815-3.009,4.821L284.309,77.532z"/>
								</g>
							</g>
						</g>
					</g>
				</g>
			</g>
		</g>
	</g>
	<g>
		<g>
			<g>
				<g>
					<g>
						<g>
							<g>
								<g>
									<path style="fill:#EBEBEB;" d="M714.205,86.323c0.54-3.921-4.993-7.146-9.151-7.481c-1.983-0.16-4.042,0.143-5.921-0.511
										c-4.07-1.418-5.695-6.676-9.666-8.351c-2.969-1.252-6.387-0.137-9.265,1.311c-2.878,1.448-5.722,3.271-8.938,3.477
										c-2.797,0.179-5.834-0.858-8.281,0.508c-1.823,1.018-2.779,3.119-4.459,4.359c-1.644,1.213-3.789,1.47-5.829,1.581
										c-2.04,0.111-4.152,0.132-6.01,0.982c-1.858,0.851-3.395,2.815-3.009,4.821L714.205,86.323z"/>
								</g>
							</g>
						</g>
					</g>
				</g>
			</g>
		</g>
	</g>
	<g>
		<g>
			<g>
				<g>
					<g>
						<g>
							<g>
								<g>
									<path style="fill:#F5F5F5;" d="M105.766,149.229c0.54-3.921-4.993-7.146-9.151-7.481c-1.983-0.16-4.042,0.143-5.921-0.512
										c-4.07-1.418-5.695-6.676-9.666-8.351c-2.969-1.252-6.387-0.137-9.265,1.311c-2.878,1.448-5.722,3.271-8.938,3.477
										c-2.797,0.179-5.834-0.858-8.281,0.508c-1.824,1.018-2.779,3.119-4.459,4.359c-1.644,1.213-3.789,1.47-5.829,1.581
										c-2.04,0.111-4.152,0.132-6.01,0.982c-1.858,0.851-3.395,2.815-3.009,4.821L105.766,149.229z"/>
								</g>
							</g>
						</g>
					</g>
				</g>
			</g>
		</g>
	</g>
	<g>
		<g>
			<g>
				<g>
					<g>
						<g>
							<g>
								<g>
									<path style="fill:#F5F5F5;" d="M480.547,114.212c0.642-4.667-5.944-8.506-10.893-8.905c-2.36-0.19-4.811,0.171-7.047-0.609
										c-4.844-1.688-6.779-7.947-11.506-9.94c-3.534-1.49-7.602-0.164-11.028,1.561c-3.426,1.724-6.811,3.894-10.639,4.139
										c-3.329,0.213-6.945-1.021-9.858,0.605c-2.171,1.212-3.307,3.713-5.308,5.188c-1.957,1.444-4.51,1.749-6.939,1.881
										c-2.428,0.132-4.943,0.157-7.154,1.169c-2.211,1.013-4.041,3.351-3.582,5.739L480.547,114.212z"/>
								</g>
							</g>
						</g>
					</g>
				</g>
			</g>
		</g>
	</g>
</g>
<g id="Background_Simple" style="display:none;">
	<g style="display:inline;">
		<path style="fill:#F5F5F5;" d="M483.568,120.681l-0.261,2.483c-2.198,20.934,6.953,41.519,24.321,53.07
			c2.232,1.485,4.573,2.809,7.006,3.952c17.518,8.23,39.29,6.803,55.817-3.657c9.72-6.152,18.125-15.353,29.368-17.554
			c14.633-2.864,28.244,7.045,39.745,16.369c11.502,9.324,25.148,19.205,39.769,16.277c9.157-1.834,16.746-8.572,22.025-16.338
			c13.975-20.561,13.639-48.701,2.804-70.8c-10.835-22.098-30.857-38.562-52.962-49.27c-30.966-15.002-67.802-19.551-100.605-8.262
			C517.792,58.239,490.128,86.565,483.568,120.681z"/>
	</g>
	<g style="display:inline;">
		<path style="fill:#F5F5F5;" d="M299.285,116.199l0.261,2.483c2.198,20.934-6.953,41.519-24.321,53.07
			c-2.233,1.485-4.573,2.809-7.006,3.952c-17.518,8.23-39.29,6.803-55.817-3.657c-9.72-6.152-18.125-15.354-29.368-17.554
			c-14.632-2.864-28.244,7.045-39.745,16.369c-11.502,9.324-25.148,19.205-39.769,16.277c-9.157-1.834-16.746-8.572-22.025-16.338
			c-13.975-20.561-13.639-48.702-2.804-70.8c10.835-22.098,30.857-38.562,52.962-49.271c30.966-15.002,67.802-19.551,100.605-8.262
			S292.726,82.083,299.285,116.199z"/>
	</g>
</g>
<g id="Floor">
	<g>
		<g>
			<path style="fill:#263238;" d="M736.523,436.314c0,0.144-162.768,0.26-363.506,0.26c-200.808,0-363.541-0.117-363.541-0.26
				c0-0.144,162.733-0.26,363.541-0.26C573.755,436.054,736.523,436.171,736.523,436.314z"/>
		</g>
	</g>
</g>
<g id="Arrows">
	<g>
		<g>
			<g>
				<g>
					<polygon style="fill:#E0E0E0;" points="275.535,225.579 286.341,259.162 251.447,262.011 					"/>
				</g>
			</g>
		</g>
		<g>
			<g>
				<path style="fill:#E0E0E0;" d="M91.469,280.003l-14.176-11.549c24.328-29.86,52.933-46.356,90.021-51.916
					c37.154-5.571,80.736,4.222,111.031,24.944l-10.323,15.091c-26.693-18.258-65.16-26.876-97.997-21.953
					C137.268,239.53,113.04,253.527,91.469,280.003z"/>
			</g>
		</g>
	</g>
	<g>
		<g>
			<g>
				<g>
					<polygon style="fill:#E0E0E0;" points="477.471,234.43 466.665,268.013 501.559,270.863 					"/>
				</g>
			</g>
		</g>
		<g>
			<g>
				<path style="fill:#E0E0E0;" d="M670.094,290.296c-19.623-24.084-52.188-41.589-87.112-46.825
					c-32.842-4.922-71.305,3.695-97.998,21.953l-10.323-15.091c30.295-20.722,73.881-30.513,111.031-24.944
					c39.892,5.98,75.823,25.429,98.578,53.358L670.094,290.296z"/>
			</g>
		</g>
	</g>
</g>
<g id="Electric_Pump">
	<g>
		<g>
			<g>
				<path style="fill:#455A64;" d="M707.891,268.894l6.774,0.399c1.438,0.085,3.677,0.22,4.995,0.766
					c0.016,0.007,0.032,0.013,0.048,0.02c2.113,0.883,3.686,2.711,4.361,4.899l3.89,11.282c0.347,1.005-0.15,2.106-1.132,2.511
					l-3.149,1.301c-1.073,0.443-2.297-0.113-2.669-1.212l-2.462-7.272c-0.227-0.451-0.476-0.552-0.816-0.572l-10.325-0.518
					C706.09,276.206,706.34,272.363,707.891,268.894z"/>
			</g>
			<g>
				<path style="fill:#E0E0E0;" d="M659.35,433.425h53.053V256.647c0-3.793-3.075-6.869-6.869-6.869h-39.315
					c-3.793,0-6.869,3.075-6.869,6.869V433.425z"/>
			</g>
			<g>
				<path style="fill:#455A64;" d="M659.375,257.333l-0.024,22.365h53.052l0.334-22.651c0-5.326-4.288-7.633-9.613-7.633
					l-34.166-0.166C663.234,249.197,659.351,250.719,659.375,257.333z"/>
			</g>
			<g>
				<path style="fill:#263238;" d="M674.056,325.253h23.641c0.914,0,1.655-0.741,1.655-1.655v-53.74
					c0-0.914-0.741-1.655-1.655-1.655h-23.641c-0.914,0-1.655,0.741-1.655,1.655v53.74
					C672.401,324.512,673.142,325.253,674.056,325.253z"/>
			</g>
			<g>
				
					<rect x="647.349" y="429.64" transform="matrix(-1 -1.224647e-16 1.224647e-16 -1 1372.7356 866.8492)" style="fill:#263238;" width="78.038" height="7.57"/>
			</g>
			<g>
				<path style="fill:#E0E0E0;" d="M711.877,302.073v15.896l8.329-5.122v-5.129h-0.683c-2.593,0-5.09-1.182-6.586-3.3
					C712.454,303.734,712.074,302.955,711.877,302.073z"/>
			</g>
			<g>
				<path style="fill:#263238;" d="M725.818,395.76c1.393,0,2.769-0.334,4.06-1.007c4.299-2.241,6.765-7.724,6.765-15.043
					c0-0.05-0.002-0.1-0.006-0.149c-0.851-9.992-2.174-16.384-3.705-23.786c-1.431-6.917-1.06-14.247-2.741-26.976
					c-0.803-6.078-2.89-40.197-2.881-40.322l-3.631,1.595c-0.034,0.527,2.182,32.765,3.03,39.188
					c1.698,12.855,1.34,20.253,2.783,27.228c1.505,7.273,2.805,13.557,3.639,23.297c-0.015,5.84-1.836,10.269-4.876,11.854
					c-1.918,0.999-4.108,0.757-6.169-0.682c-4.028-2.814-7.718-10.533-6.018-23.763c4.109-18.3,6.632-32.324,6.515-45.638
					c-0.34-24.744-3.738-30.672-4.125-31.267l-2.945,1.914c0.011,0.021,3.233,5.754,3.558,29.392
					c0.114,12.988-2.383,26.814-6.448,44.908c-0.011,0.052-0.021,0.105-0.028,0.159c-1.638,12.6,1.159,22.759,7.479,27.174
					C721.902,395.113,723.877,395.76,725.818,395.76z"/>
			</g>
			<g>
				<path style="fill:#263238;" d="M712.403,282.734v9.696c0.492,0.158,1.022,0.246,1.57,0.246c0.523,0,1.029-0.077,1.504-0.225
					c2.08-0.643,3.59-2.579,3.59-4.869c0-2.29-1.511-4.226-3.59-4.869c-0.474-0.148-0.98-0.225-1.504-0.225
					C713.425,282.489,712.895,282.577,712.403,282.734z"/>
			</g>
			<g>
				<polygon style="fill:#455A64;" points="686.838,345.98 676.871,365.158 686.605,365.158 681.719,378.702 693.869,359.745 
					684.28,359.745 				"/>
			</g>
			<g>
				<g>
					<path style="fill:#455A64;" d="M692.919,317.123h-13.102c-0.51,0-0.925-0.445-0.925-0.992v-33.395
						c0-0.547,0.415-0.991,0.925-0.991h2.529l-0.074-2.626c0-0.547,0.415-0.991,0.925-0.991h6.342c0.51,0,0.925,0.444,0.925,0.991
						v2.635c0,0.015,0.004,0.022,0.004,0.022l2.451-0.031c0.51,0,0.925,0.444,0.925,0.991v33.395
						C693.843,316.678,693.428,317.123,692.919,317.123z M679.817,282.745l0.075,33.386l13.026-0.008l-0.075-33.387l-2.454,0.009
						c-0.511,0-0.926-0.444-0.926-0.991v-2.635l-6.267,0.009l0.075,2.626c0,0.547-0.415,0.991-0.926,0.991H679.817z"/>
				</g>
				<g>
					<path style="fill:#455A64;" d="M690.876,286.64h-9.017c-0.326,0-0.59-0.264-0.59-0.59v-1.327c0-0.326,0.264-0.59,0.59-0.59
						h9.017c0.326,0,0.59,0.264,0.59,0.59v1.327C691.467,286.376,691.202,286.64,690.876,286.64z"/>
				</g>
				<g>
					<path style="fill:#455A64;" d="M690.876,290.095h-9.017c-0.326,0-0.59-0.264-0.59-0.59v-1.327c0-0.326,0.264-0.59,0.59-0.59
						h9.017c0.326,0,0.59,0.264,0.59,0.59v1.327C691.467,289.831,691.202,290.095,690.876,290.095z"/>
				</g>
				<g>
					<path style="fill:#455A64;" d="M690.876,293.55h-9.017c-0.326,0-0.59-0.264-0.59-0.59v-1.327c0-0.326,0.264-0.59,0.59-0.59
						h9.017c0.326,0,0.59,0.264,0.59,0.59v1.327C691.467,293.286,691.202,293.55,690.876,293.55z"/>
				</g>
				<g>
					<path style="fill:#455A64;" d="M690.876,297.005h-9.017c-0.326,0-0.59-0.264-0.59-0.59v-1.327c0-0.326,0.264-0.59,0.59-0.59
						h9.017c0.326,0,0.59,0.264,0.59,0.59v1.327C691.467,296.741,691.202,297.005,690.876,297.005z"/>
				</g>
				<g>
					<path style="fill:#455A64;" d="M690.876,300.46h-9.017c-0.326,0-0.59-0.264-0.59-0.59v-1.327c0-0.326,0.264-0.59,0.59-0.59
						h9.017c0.326,0,0.59,0.264,0.59,0.59v1.327C691.467,300.196,691.202,300.46,690.876,300.46z"/>
				</g>
				<g>
					<path style="fill:#455A64;" d="M690.876,303.915h-9.017c-0.326,0-0.59-0.264-0.59-0.59v-1.327c0-0.326,0.264-0.59,0.59-0.59
						h9.017c0.326,0,0.59,0.264,0.59,0.59v1.327C691.467,303.651,691.202,303.915,690.876,303.915z"/>
				</g>
				<g>
					<path style="fill:#455A64;" d="M690.876,307.37h-9.017c-0.326,0-0.59-0.264-0.59-0.59v-1.327c0-0.326,0.264-0.59,0.59-0.59
						h9.017c0.326,0,0.59,0.264,0.59,0.59v1.327C691.467,307.105,691.202,307.37,690.876,307.37z"/>
				</g>
				<g>
					<path style="fill:#455A64;" d="M690.876,310.835h-9.017c-0.326,0-0.59-0.264-0.59-0.59v-1.327c0-0.326,0.264-0.59,0.59-0.59
						h9.017c0.326,0,0.59,0.264,0.59,0.59v1.327C691.467,310.57,691.202,310.835,690.876,310.835z"/>
				</g>
				<g>
					<path style="fill:#455A64;" d="M690.876,314.346h-9.017c-0.326,0-0.59-0.264-0.59-0.59v-1.327c0-0.326,0.264-0.59,0.59-0.59
						h9.017c0.326,0,0.59,0.264,0.59,0.59v1.327C691.467,314.082,691.202,314.346,690.876,314.346z"/>
				</g>
			</g>
		</g>
		<g>
			<g>
				<path style="fill:#263238;" d="M659.35,432.073c0,0-0.013-0.394-0.019-1.181c-0.004-0.8-0.011-1.971-0.019-3.504
					c-0.009-3.1-0.022-7.652-0.039-13.512c-0.02-11.766-0.05-28.773-0.086-49.785c-0.021-21.045-0.046-46.1-0.075-73.919
					c-0.003-6.957-0.007-14.088-0.011-21.371c-0.001-3.642-0.003-7.322-0.004-11.038c0-0.913-0.032-1.893,0.217-2.835
					c0.232-0.938,0.661-1.829,1.251-2.6c1.173-1.547,3.011-2.599,4.972-2.768c7.61-0.07,15.273-0.022,23.095-0.038
					c3.906,0,7.84-0.001,11.801-0.001l2.975,0c1.001,0.02,1.968-0.048,3.014,0.061c2.053,0.252,3.986,1.446,5.1,3.21
					c0.628,0.993,1.041,2.136,1.112,3.311c0.055,1.17,0.015,2.272,0.027,3.408c0,2.255,0,4.503,0,6.741
					c0,4.478-0.001,8.921-0.001,13.326c-0.002,8.811-0.003,17.47-0.005,25.948c-0.007,16.955-0.013,33.184-0.019,48.448
					c-0.027,30.526-0.051,57.194-0.07,78.101l0,0.165l-0.164,0c-16.749-0.039-30.025-0.069-39.126-0.091
					c-4.525-0.017-8.009-0.031-10.374-0.04c-1.166-0.008-2.054-0.013-2.661-0.017C659.646,432.084,659.35,432.073,659.35,432.073
					s0.317-0.011,0.923-0.017c0.615-0.004,1.512-0.01,2.691-0.017c2.374-0.009,5.87-0.023,10.411-0.04
					c9.078-0.021,22.321-0.052,39.028-0.09l-0.164,0.164c-0.019-20.907-0.043-47.576-0.07-78.101
					c-0.006-15.265-0.013-31.494-0.019-48.448c-0.002-8.478-0.003-17.137-0.005-25.948c-0.001-4.405-0.001-8.849-0.001-13.326
					c0-2.239,0-4.486,0-6.741c-0.012-1.119,0.026-2.278-0.026-3.369c-0.065-1.089-0.449-2.146-1.03-3.068
					c-1.033-1.637-2.825-2.742-4.727-2.976c-0.936-0.102-1.966-0.039-2.95-0.057l-2.975,0c-3.96,0-7.895-0.001-11.801-0.001
					c-7.8,0.013-15.534-0.034-23.047,0.028c-1.82,0.156-3.527,1.132-4.617,2.568c-0.548,0.716-0.947,1.543-1.163,2.414
					c-0.231,0.87-0.203,1.773-0.204,2.711c-0.001,3.709-0.003,7.381-0.004,11.016c-0.004,7.269-0.007,14.385-0.011,21.328
					c-0.028,27.78-0.053,52.799-0.075,73.815c-0.036,21.03-0.066,38.05-0.086,49.825c-0.017,5.886-0.03,10.458-0.039,13.572
					c-0.008,1.548-0.015,2.732-0.019,3.54C659.363,431.654,659.35,432.073,659.35,432.073z"/>
			</g>
		</g>
	</g>
</g>
<g id="Petrol_Pump">
	<g>
		<g>
			<g>
				<path style="fill:#263238;" d="M44.283,282.268c0,0,4.921-14.037,10.361-19.534v5.735c0,0-6.236,10.65-7.195,16.675
					L44.283,282.268z"/>
			</g>
			<g>
				<path style="fill:#E0E0E0;" d="M106.494,432.578H54.125V256.116c0-3.793,3.075-6.869,6.868-6.869h38.632
					c3.793,0,6.868,3.075,6.868,6.869V432.578z"/>
			</g>
			<g>
				<path style="fill:#FF725E;" d="M99.746,249.248H60.873c-3.727,0-6.748,3.021-6.748,6.748v22.787h52.369v-22.787
					C106.494,252.269,103.473,249.248,99.746,249.248z"/>
			</g>
			<g>
				<path style="fill:#263238;" d="M92.114,323.75h-23.61c-0.827,0-1.498-0.671-1.498-1.498v-53.321
					c0-0.827,0.671-1.498,1.498-1.498h23.61c0.827,0,1.498,0.671,1.498,1.498v53.321C93.612,323.08,92.941,323.75,92.114,323.75z"/>
			</g>
			<g>
				<rect x="41.793" y="428.842" style="fill:#263238;" width="77.033" height="7.472"/>
			</g>
			<g>
				<path style="fill:#263238;" d="M54.125,281.779v9.571c-0.486,0.156-1.009,0.243-1.55,0.243c-0.517,0-1.016-0.076-1.484-0.222
					c-2.053-0.635-3.544-2.545-3.544-4.806c0-2.261,1.491-4.172,3.544-4.806c0.468-0.146,0.967-0.222,1.484-0.222
					C53.116,281.537,53.639,281.623,54.125,281.779z"/>
			</g>
			<g>
				<path style="fill:#E0E0E0;" d="M54.644,300.869v15.692l-8.222-5.056v-5.063h0.674c2.559,0,5.025-1.167,6.501-3.258
					C54.074,302.509,54.449,301.739,54.644,300.869z"/>
			</g>
			<g>
				<polygon style="fill:#E0E0E0;" points="45.039,287.295 43.912,290.676 46.947,291.543 46.253,295.444 41.832,295.444 
					41.832,303.854 43.826,304.807 43.826,308.112 37.237,308.112 37.237,297.293 35.937,295.271 35.937,291.543 38.884,291.543 
					43.826,280.88 48.649,284.372 48.171,287.642 				"/>
			</g>
			<g>
				<path style="fill:#263238;" d="M40.882,393.349c-1.375,0-2.733-0.329-4.008-0.994c-4.244-2.212-6.678-7.625-6.678-14.849
					c0-0.049,0.002-0.098,0.006-0.147c0.84-9.863,2.146-16.173,3.657-23.48c1.413-6.827,3.014-14.565,4.674-27.13
					c0.793-6-0.003-18.35-0.011-18.474l3.46-0.227c0.034,0.52,0.826,12.815-0.011,19.155c-1.676,12.689-3.291,20.493-4.715,27.378
					c-1.486,7.179-2.769,13.382-3.592,22.997c0.015,5.765,1.812,10.137,4.813,11.702c1.893,0.987,4.055,0.747,6.089-0.674
					c3.976-2.777,7.619-10.397,5.94-23.456c-4.056-18.064-6.547-31.908-6.431-45.051c0.336-24.426,3.69-30.277,4.072-30.864
					l2.907,1.89c-0.011,0.021-3.191,5.68-3.512,29.013c-0.112,12.821,2.353,26.468,6.366,44.33c0.011,0.052,0.021,0.104,0.027,0.157
					c1.617,12.438-1.144,22.466-7.383,26.824C44.748,392.711,42.798,393.349,40.882,393.349z"/>
			</g>
			<g>
				<path style="fill:#FF725E;" d="M86.294,358.043l0.029,0.002l-0.078-0.16c-0.194-0.596-0.456-1.159-0.809-1.661l-4.107-8.434
					c-0.416-0.855-1.633-0.859-2.054-0.007l-4.654,9.403l0.014,0.001c-0.373,0.803-0.597,1.689-0.597,2.632
					c0,3.464,2.808,6.271,6.271,6.271c3.464,0,6.272-2.808,6.272-6.271C86.581,359.198,86.462,358.61,86.294,358.043z"/>
			</g>
			<g>
				<path style="fill:#455A64;" d="M86.461,280.88H74.157c-0.445,0-0.806-0.361-0.806-0.806v-0.622c0-0.445,0.361-0.806,0.806-0.806
					h12.304c0.445,0,0.806,0.361,0.806,0.806v0.622C87.267,280.519,86.906,280.88,86.461,280.88z"/>
			</g>
			<g>
				<path style="fill:#455A64;" d="M77.675,285.086h-3.517c-0.445,0-0.806-0.361-0.806-0.806v-0.622
					c0-0.445,0.361-0.806,0.806-0.806h3.517c0.445,0,0.806,0.361,0.806,0.806v0.622C78.481,284.725,78.12,285.086,77.675,285.086z"
					/>
			</g>
			<g>
				<path style="fill:#FF725E;" d="M76.921,312.936c0,1.152-0.934,2.086-2.086,2.086c-1.152,0-2.086-0.934-2.086-2.086
					c0-1.152,0.934-2.086,2.086-2.086C75.987,310.85,76.921,311.784,76.921,312.936z"/>
			</g>
			<g>
				<path style="fill:#455A64;" d="M87.901,312.936c0,1.152-0.934,2.086-2.086,2.086c-1.152,0-2.086-0.934-2.086-2.086
					c0-1.152,0.934-2.086,2.086-2.086C86.967,310.85,87.901,311.784,87.901,312.936z"/>
			</g>
		</g>
		<g>
			<g>
				<path style="fill:#263238;" d="M53.86,428.842c0,0-0.013-0.388-0.019-1.164c-0.004-0.789-0.011-1.943-0.019-3.454
					c-0.009-3.056-0.022-7.544-0.039-13.32c-0.02-11.599-0.05-28.364-0.086-49.078c-0.021-20.747-0.047-45.446-0.075-72.87
					c-0.004-6.859-0.007-13.888-0.011-21.068c-0.001-3.59-0.002-7.218-0.004-10.882c-0.007-0.899-0.015-1.875,0.243-2.796
					c0.242-0.922,0.675-1.795,1.263-2.55c1.169-1.516,2.983-2.541,4.915-2.716c7.504-0.072,15.057-0.023,22.768-0.039
					c3.85,0,7.729-0.001,11.633-0.001l2.933,0c0.983,0.019,1.945-0.051,2.974,0.074c2.02,0.272,3.915,1.457,5.012,3.197
					c0.619,0.979,1.027,2.103,1.109,3.259c0.06,1.157,0.017,2.24,0.03,3.36c0,2.222,0,4.436,0,6.642
					c0,4.412-0.001,8.789-0.001,13.13c-0.002,8.681-0.003,17.213-0.005,25.566c-0.007,16.706-0.013,32.697-0.019,47.738
					c-0.027,30.08-0.051,56.361-0.07,76.973l0,0.165l-0.165,0c-16.532-0.039-29.637-0.069-38.622-0.091
					c-4.466-0.018-7.906-0.031-10.241-0.04c-1.151-0.008-2.027-0.013-2.627-0.017C54.151,428.853,53.86,428.842,53.86,428.842
					s0.313-0.011,0.911-0.017c0.607-0.004,1.493-0.01,2.656-0.017c2.344-0.009,5.796-0.023,10.278-0.04
					c8.962-0.021,22.034-0.052,38.524-0.091l-0.164,0.165c-0.019-20.611-0.043-46.893-0.07-76.973
					c-0.006-15.042-0.012-31.033-0.019-47.738c-0.002-8.353-0.003-16.885-0.005-25.566c0-4.341-0.001-8.719-0.001-13.13
					c0-2.206,0-4.42,0-6.642c-0.013-1.101,0.028-2.246-0.028-3.317c-0.076-1.072-0.455-2.112-1.028-3.02
					c-1.017-1.615-2.775-2.711-4.646-2.964c-0.922-0.116-1.931-0.053-2.903-0.07l-2.933,0c-3.904,0-7.783-0.001-11.633-0.001
					c-7.689,0.014-15.314-0.035-22.719,0.029c-1.793,0.161-3.477,1.112-4.564,2.52c-0.547,0.701-0.949,1.512-1.174,2.367
					c-0.24,0.858-0.235,1.739-0.228,2.665c-0.001,3.656-0.003,7.276-0.004,10.859c-0.004,7.166-0.007,14.18-0.011,21.025
					c-0.028,27.385-0.053,52.049-0.075,72.766c-0.036,20.731-0.066,37.51-0.086,49.118c-0.017,5.802-0.03,10.31-0.039,13.379
					c-0.008,1.526-0.015,2.693-0.019,3.49C53.872,428.429,53.86,428.842,53.86,428.842z"/>
			</g>
		</g>
	</g>
</g>
<g id="Speech_Bubble">
	<g>
		<g>
			<g>
				<g>
					<path style="fill:#FFFFFF;" d="M353.018,153.289c-14.35,14.162-16.294,37.074-4.495,53.423
						c6.467,8.96,15.678,14.474,25.507,16.422l-0.023,0.002l7.595,10.86l7.249-10.616c7.526-1.242,14.804-4.578,20.91-10.085
						c16.824-15.174,18.132-41.632,2.914-58.416C397.027,137.621,369.941,136.588,353.018,153.289z"/>
				</g>
				<g>
					<g>
						<path style="fill:#263238;" d="M353.018,153.289c0,0,0.164-0.17,0.504-0.484c0.354-0.323,0.858-0.783,1.516-1.383
							c0.336-0.304,0.71-0.642,1.122-1.015c0.431-0.351,0.937-0.693,1.466-1.087c0.535-0.389,1.11-0.807,1.724-1.254
							c0.603-0.466,1.343-0.81,2.074-1.259c2.915-1.805,6.837-3.466,11.583-4.572c4.743-1.087,10.401-1.462,16.459-0.378
							c6.027,1.076,12.515,3.572,18.178,8.11c0.704,0.568,1.414,1.141,2.13,1.718c0.653,0.648,1.311,1.301,1.975,1.959l0.999,0.992
							c0.318,0.346,0.604,0.725,0.909,1.089c0.602,0.735,1.208,1.475,1.818,2.221c2.203,3.159,4.205,6.619,5.569,10.464
							c1.331,3.844,2.201,7.955,2.44,12.215c0.152,4.26-0.293,8.627-1.416,12.912c-1.085,4.298-3.007,8.453-5.545,12.251
							l-0.944,1.437l-1.084,1.342c-0.749,0.875-1.401,1.841-2.263,2.624c-0.825,0.815-1.632,1.656-2.481,2.456
							c-0.876,0.771-1.774,1.525-2.718,2.224c-5.409,4.093-11.743,6.706-18.141,7.762l0.171-0.109
							c-2.465,3.607-4.885,7.149-7.253,10.613c-0.079,0.115-0.236,0.145-0.351,0.066c-0.026-0.018-0.048-0.04-0.065-0.064
							c-2.598-3.72-5.129-7.343-7.588-10.865c-0.078-0.111-0.051-0.263,0.06-0.341c0.037-0.026,0.081-0.04,0.123-0.044l0.023-0.002
							l-0.03,0.484c-3.215-0.66-6.303-1.653-9.177-2.966c-2.868-1.323-5.529-2.937-7.933-4.77c-4.81-3.68-8.526-8.244-11.136-13.008
							c-2.616-4.774-4.098-9.76-4.705-14.46c-0.613-4.71-0.363-9.13,0.336-13.031c0.691-3.918,1.995-7.258,3.239-10.092
							c1.368-2.786,2.767-5.047,4.054-6.772c0.659-0.848,1.244-1.6,1.751-2.252c0.561-0.597,1.035-1.102,1.423-1.514
							c0.378-0.396,0.668-0.7,0.876-0.918C352.91,153.386,353.018,153.289,353.018,153.289s-0.089,0.117-0.277,0.33
							c-0.201,0.224-0.481,0.537-0.845,0.945c-0.378,0.418-0.842,0.931-1.389,1.536c-0.497,0.657-1.069,1.414-1.715,2.268
							c-1.262,1.733-2.632,3.996-3.971,6.776c-1.215,2.828-2.49,6.154-3.154,10.048c-0.674,3.876-0.901,8.263-0.275,12.929
							c0.62,4.657,2.105,9.59,4.708,14.307c2.597,4.707,6.287,9.217,11.051,12.845c2.381,1.808,5.015,3.398,7.852,4.701
							c2.842,1.293,5.896,2.27,9.075,2.918c0.133,0.026,0.219,0.155,0.192,0.288c-0.022,0.11-0.116,0.188-0.222,0.197l-0.023,0.002
							l0.183-0.385c2.464,3.519,4.999,7.139,7.601,10.856l-0.416,0.002c2.365-3.467,4.782-7.01,7.245-10.619
							c0.041-0.06,0.104-0.098,0.171-0.109c6.318-1.047,12.57-3.628,17.911-7.67c0.932-0.69,1.819-1.435,2.685-2.196
							c0.838-0.791,1.634-1.621,2.449-2.425c0.852-0.772,1.495-1.727,2.235-2.59l1.071-1.325l0.932-1.418
							c2.508-3.749,4.409-7.851,5.483-12.096c1.112-4.232,1.557-8.546,1.412-12.756c-0.231-4.21-1.086-8.274-2.395-12.076
							c-1.342-3.803-3.315-7.226-5.486-10.355c-0.602-0.739-1.2-1.472-1.794-2.2c-0.301-0.36-0.582-0.735-0.896-1.079l-0.987-0.983
							c-0.655-0.653-1.305-1.301-1.949-1.943c-0.707-0.573-1.408-1.141-2.103-1.705c-5.592-4.506-12.007-6.998-17.977-8.088
							c-6.001-1.097-11.615-0.753-16.33,0.3c-4.719,1.072-8.63,2.693-11.546,4.463c-0.731,0.44-1.472,0.775-2.077,1.233
							c-0.617,0.438-1.194,0.848-1.731,1.229c-0.532,0.385-1.041,0.72-1.477,1.064c-0.417,0.365-0.795,0.696-1.135,0.993
							c-0.671,0.582-1.186,1.029-1.548,1.342C353.207,153.145,353.018,153.289,353.018,153.289z"/>
					</g>
				</g>
			</g>
		</g>
		<g>
			<g>
				<g>
					<g>
						<g>
							<polygon style="fill:#FF725E;" points="361.33,184.212 367.143,178.398 378.355,188.364 400.363,167.187 405.761,173 
								377.524,199.576 							"/>
						</g>
					</g>
				</g>
			</g>
		</g>
	</g>
</g>
<g id="Car">
	<g>
		<g>
			<rect x="154.525" y="345.966" style="fill:#FF725E;" width="447.66" height="58.685"/>
		</g>
		<g style="opacity:0.4;">
			<rect x="154.525" y="345.966" width="447.66" height="58.685"/>
		</g>
		<g>
			<path style="fill:#FF725E;" d="M628.019,342.491c-12.72-7.591-45.728-19.501-54.89-20.519c-5.547-0.616-30.25-3.895-30.25-3.895
				l-8.001-0.615c0,0-85.113-40.704-98.65-45.754c-20.966-7.821-65.27-14.614-112.25-9.023c0,0-62.778,5.539-76.728,9.437
				c-13.951,3.898-81.447,24.208-81.447,24.208s-29.589,3.005-29.132,4.103c0,0,0.41,1.846,2.872,4.103v18.259
				c0,0-3.282,4.308-4.103,6.36c-0.821,2.052-2.667,18.259-2.667,18.259s-8.846,20.31-8.846,25.644
				c0,5.334,16.027,25.85,19.925,28.927c3.898,3.077,35.381,7.563,35.381,7.563l-0.054-15.359c0.828-23.387,19.7-42.09,42.874-42.09
				c23.174,0,42.046,18.703,42.874,42.09l0.096,19.9h242.16h3.426l-0.166-14.771c-0.091-1.165-0.151-2.34-0.151-3.529
				c0-24.129,19.213-43.689,42.914-43.689c23.701,0,42.914,19.56,42.914,43.689c0,1.189-0.06,2.364-0.152,3.529h0.868v14.771h28.312
				c0,0,22.977-17.028,22.362-25.645v-24.269c0-3.225-1.211-6.327-3.405-8.69C640.903,352.04,635.487,346.947,628.019,342.491z"/>
		</g>
		<g style="opacity:0.2;">
			<path d="M647.509,371.215l-18.119-6.463l-2.154,9.848l-28.928-1.539c0,0-12.734-24.326-38.776-26.466
				c-22.295-1.832-40.006,9.253-40.006,9.253L392.121,343.21c0,0-64.626-2.462-89.553-2.154
				c-24.927,0.308-46.895,18.425-46.895,18.425s-7.357-10.671-33.426-10.915c-26.068-0.244-36.943,15.065-36.943,15.065
				c-18.377-2.406-36.09-9.713-50.819-20.963l-1.271,1.018c-0.266,2.188-0.442,3.728-0.442,3.728s-8.846,20.31-8.846,25.644
				c0,5.334,16.027,25.85,19.925,28.927c3.898,3.077,35.381,7.563,35.381,7.563l-0.054-15.359c0.828-23.387,19.7-42.09,42.874-42.09
				c23.174,0,42.046,18.703,42.874,42.09l0.096,19.9h242.16h3.426l-0.166-14.771c-0.091-1.165-0.151-2.34-0.151-3.529
				c0-24.129,19.213-43.689,42.914-43.689c23.701,0,42.914,19.56,42.914,43.689c0,1.189-0.06,2.364-0.152,3.529h0.868v14.771h28.312
				c0,0,22.977-17.028,22.362-25.645V371.215L647.509,371.215z"/>
		</g>
		<g>
			<path style="fill:#263238;" d="M210.524,297.656c-2.186,1.57-1.327,5.006,1.341,5.362l21.587,2.88l122.656,13.521l149.554,8.295
				c2.398,0.133,4.788-0.895,6.12-2.893c1.268-1.901,1.751-4.557-1.388-7.575c-6.278-6.036-34.044-21.625-40.564-24.696
				c-6.519-3.071-52.261-30.511-120.538-26.764c-20.669,0.717-60.333,6.621-111.591,13.335c-1.096,0.143-2.145,0.556-3.042,1.201
				L210.524,297.656z"/>
		</g>
		<g>
			<path style="fill:#455A64;" d="M236.025,303.693c0.307-0.92,11.347-21.774,13.494-23.001c2.147-1.227,91.39-12.574,92.616-11.04
				c1.227,1.533,4.294,45.388,4.294,45.388L236.025,303.693z"/>
		</g>
		<g>
			<polygon style="fill:#263238;" points="270.034,277.504 269.257,308.111 273.859,308.111 273.859,276.991 			"/>
		</g>
		<g>
			<g>
				<path style="fill:#263238;" d="M484.495,300.478c0,0,0.081,0.154,0.225,0.464c0.147,0.321,0.357,0.783,0.634,1.388
					c0.267,0.618,0.647,1.365,1.004,2.292c0.362,0.927,0.78,1.999,1.253,3.211c1.768,4.893,3.908,12.276,5.236,21.899
					c1.352,9.611,1.91,21.434,1.091,34.9c-0.401,6.732-1.136,13.874-2.274,21.345c-0.578,3.734-1.239,7.552-2.076,11.431
					c-0.224,0.962-0.389,1.956-0.79,2.915c-0.39,0.944-0.88,1.835-1.397,2.712c-1.043,1.751-2.208,3.44-3.451,5.106l-0.069,0.092
					l-0.117-0.002c-29.717-0.543-64.444-1.176-101.375-1.85c-19.164-0.439-37.734-0.864-55.328-1.267
					c-8.797-0.173-17.351-0.348-25.611-0.406c-1.032-0.002-2.061-0.02-3.082-0.003c-1.017,0.02-2.038,0.02-3.076-0.034
					c-2.057-0.152-4.049-0.745-5.848-1.65c-1.804-0.903-3.423-2.098-4.859-3.441c-1.436-1.349-2.708-2.825-3.768-4.454l0.01,0.015
					c-9.444-13.009-17.979-25.027-25.447-35.755c-3.717-5.375-7.194-10.409-10.324-15.123c-3.143-4.705-5.983-9.06-8.392-13.095
					c-1.21-2.011-2.317-3.951-3.169-5.867c-0.202-0.485-0.4-0.962-0.596-1.432c-0.197-0.469-0.304-0.962-0.457-1.429
					c-0.129-0.474-0.308-0.928-0.388-1.396c-0.088-0.467-0.175-0.926-0.26-1.376c-0.641-3.627-0.094-6.798,0.616-9.199
					c0.739-2.418,1.708-4.121,2.419-5.207c0.718-1.089,1.193-1.571,1.193-1.571s-0.101,0.134-0.301,0.397
					c-0.197,0.265-0.482,0.666-0.832,1.213c-0.689,1.094-1.633,2.8-2.345,5.208c-0.683,2.392-1.204,5.537-0.548,9.125
					c0.087,0.445,0.175,0.899,0.265,1.361c0.082,0.464,0.262,0.912,0.392,1.381c0.154,0.462,0.261,0.949,0.459,1.413
					c0.196,0.464,0.395,0.936,0.598,1.416c0.854,1.897,1.965,3.823,3.181,5.826c2.421,4.017,5.275,8.361,8.431,13.053
					c3.143,4.701,6.633,9.724,10.362,15.089c7.491,10.707,16.048,22.709,25.507,35.7l0,0l0.01,0.015
					c2.082,3.118,4.95,5.932,8.451,7.713c1.753,0.878,3.683,1.449,5.672,1.594c0.99,0.05,2.006,0.051,3.037,0.029
					c1.027-0.018,2.055-0.002,3.089-0.001c8.267,0.05,16.821,0.218,25.619,0.384c17.595,0.397,36.165,0.816,55.329,1.249
					c36.93,0.697,71.656,1.353,101.372,1.914l-0.186,0.09c1.232-1.647,2.397-3.331,3.429-5.058c0.511-0.865,0.996-1.744,1.371-2.651
					c0.378-0.892,0.547-1.88,0.772-2.842c0.84-3.864,1.508-7.676,2.091-11.401c1.149-7.455,1.897-14.584,2.314-21.304
					c0.849-13.442,0.327-25.242-0.983-34.84c-1.286-9.609-3.381-16.987-5.103-21.887c-0.46-1.215-0.867-2.289-1.219-3.219
					c-0.346-0.93-0.715-1.681-0.971-2.304c-0.262-0.611-0.462-1.077-0.601-1.402C484.555,300.642,484.495,300.478,484.495,300.478z"
					/>
			</g>
		</g>
		<g>
			<g>
				<path style="fill:#263238;" d="M357.976,319.523c0.018-0.005,0.118,0.29,0.256,0.865c0.138,0.575,0.314,1.43,0.497,2.538
					c0.363,2.216,0.74,5.447,0.988,9.453c0.537,8.017,0.321,19.104,0.163,31.332c-0.194,12.236-0.466,23.309-0.69,31.324
					c-0.126,3.971-0.229,7.201-0.302,9.49c-0.047,1.085-0.084,1.945-0.111,2.579c-0.017,0.268-0.031,0.488-0.042,0.671
					c-0.012,0.151-0.023,0.228-0.032,0.228c-0.009,0-0.016-0.078-0.021-0.229c-0.003-0.183-0.006-0.403-0.009-0.672
					c0.003-0.635,0.008-1.496,0.013-2.582c0.033-2.29,0.08-5.521,0.137-9.493c0.138-8.057,0.328-19.11,0.537-31.324
					c0.158-12.229,0.432-23.306-0.01-31.304c-0.201-3.999-0.521-7.225-0.821-9.444c-0.152-1.109-0.295-1.966-0.4-2.546
					c-0.049-0.264-0.089-0.48-0.122-0.659C357.98,319.603,357.968,319.526,357.976,319.523z"/>
			</g>
		</g>
		<g>
			<path style="fill:#455A64;" d="M358.998,268.787l9.15,46.253l97.581,6.932l15.028-20.381c0,0-37.807-21.508-71.024-27.998
				C376.033,267.009,358.998,268.787,358.998,268.787z"/>
		</g>
		<g style="opacity:0.2;">
			<path d="M282.264,375.648c0,0,45.584,19.164,53.874,20.969c8.29,1.804,141.857,2.839,141.857,2.839l2.763-5.958l-139.407-0.923
				C341.35,392.574,285.341,371.647,282.264,375.648z"/>
		</g>
		<g>
			<g>
				<path style="fill:#263238;" d="M255.673,359.482c-0.008,0.007-0.084-0.072-0.242-0.218c-0.152-0.152-0.394-0.361-0.704-0.642
					c-0.637-0.543-1.608-1.307-2.932-2.185c-1.339-0.857-3.036-1.809-5.086-2.753c-2.069-0.899-4.476-1.812-7.217-2.562
					c-2.747-0.712-5.791-1.396-9.115-1.759c-1.653-0.252-3.382-0.324-5.155-0.472c-0.887-0.075-1.79-0.04-2.703-0.066
					c-0.914,0.003-1.841-0.064-2.776,0.026c-7.488,0.295-15.693,2.232-23.412,6.177c-3.29,1.676-6.398,3.609-9.054,5.811
					l-0.217,0.18l-0.16-0.222c-4.347-6.004-8.39-11.68-11.898-16.892c-3.51-5.211-6.472-9.96-8.884-13.954
					c-2.412-3.995-4.286-7.231-5.572-9.459c-0.622-1.096-1.109-1.955-1.458-2.569c-0.151-0.276-0.272-0.497-0.367-0.671
					c-0.08-0.152-0.118-0.232-0.111-0.236c0.007-0.004,0.058,0.068,0.152,0.212c0.106,0.168,0.24,0.381,0.407,0.648
					c0.367,0.604,0.88,1.448,1.534,2.524c1.354,2.227,3.292,5.413,5.702,9.376c2.449,3.968,5.44,8.69,8.97,13.877
					c3.528,5.189,7.586,10.847,11.94,16.844l-0.378-0.041c2.719-2.259,5.832-4.194,9.158-5.891c7.787-3.98,16.074-5.922,23.63-6.193
					c0.944-0.087,1.879-0.017,2.8-0.016c0.921,0.03,1.833-0.001,2.725,0.078c1.783,0.157,3.521,0.238,5.182,0.501
					c3.34,0.384,6.402,1.093,9.16,1.833c2.753,0.777,5.168,1.721,7.239,2.651c2.053,0.976,3.747,1.961,5.077,2.849
					c1.316,0.91,2.273,1.704,2.89,2.276c0.3,0.295,0.531,0.518,0.671,0.682C255.615,359.385,255.679,359.477,255.673,359.482z"/>
			</g>
		</g>
		<g>
			<g>
				<path style="fill:#263238;" d="M139.029,383.858c-0.035,0.007-0.167-0.514-0.376-1.461c-0.209-0.947-0.488-2.323-0.809-4.027
					c-0.646-3.407-1.452-8.131-2.224-13.366c-0.771-5.237-1.362-9.992-1.725-13.441c-0.184-1.724-0.314-3.122-0.387-4.089
					c-0.074-0.967-0.098-1.504-0.062-1.508c0.036-0.004,0.128,0.525,0.263,1.485c0.143,1.055,0.328,2.423,0.551,4.067
					c0.457,3.435,1.105,8.178,1.875,13.41c0.771,5.23,1.518,9.957,2.072,13.378c0.261,1.639,0.478,3.002,0.645,4.053
					C139,383.318,139.064,383.851,139.029,383.858z"/>
			</g>
		</g>
		<g>
			<g>
				<path style="fill:#263238;" d="M180.092,387.298c0,0.018-0.181,0.031-0.524,0.039c-0.402,0.002-0.898,0.005-1.5,0.009
					c-1.302,0-3.186-0.038-5.513-0.116c-4.654-0.155-11.08-0.523-18.152-1.222c-7.074-0.704-13.448-1.605-18.042-2.367
					c-2.297-0.38-4.152-0.713-5.428-0.969c-0.59-0.122-1.075-0.222-1.469-0.303c-0.335-0.075-0.509-0.123-0.506-0.141
					c0.003-0.018,0.184-0.004,0.524,0.037c0.398,0.055,0.889,0.124,1.484,0.207c1.363,0.201,3.207,0.473,5.45,0.805
					c4.603,0.668,10.974,1.51,18.037,2.213c7.061,0.698,13.473,1.124,18.117,1.373c2.265,0.116,4.126,0.211,5.502,0.281
					c0.601,0.036,1.095,0.065,1.496,0.089C179.913,387.257,180.092,387.28,180.092,387.298z"/>
			</g>
		</g>
		<g>
			<path style="fill:#EBEBEB;" d="M629.39,364.752c0,0-5.643-13.062-5.48-13.501c0.87-2.34,4.109-8.761,4.109-8.761
				s2.652,1.46,5.867,3.769c3.588,2.576,7.92,6.186,10.925,9.508c1.739,1.921,2.698,4.418,2.7,7.009l0.009,10.942L629.39,364.752z"
				/>
		</g>
		<g>
			<g>
				<path style="fill:#263238;" d="M506.613,304.239c0.109,0.102-1.155,1.605-2.618,3.525c-1.469,1.916-2.589,3.529-2.716,3.451
					c-0.119-0.071,0.814-1.826,2.302-3.767C505.064,305.504,506.513,304.143,506.613,304.239z"/>
			</g>
		</g>
		<g>
			<path style="fill:#EBEBEB;" d="M139.543,304.537c0,0,42.746,3.498,42.275,4.441c-0.471,0.943-42.275,13.818-42.275,13.818
				V304.537z"/>
		</g>
		<g>
			<g>
				<path style="fill:#263238;" d="M139.41,323.318c-0.144,0-0.262-4.186-0.263-9.349c-0.001-5.165,0.114-9.35,0.258-9.35
					c0.144,0,0.261,4.185,0.263,9.35C139.669,319.132,139.554,323.318,139.41,323.318z"/>
			</g>
		</g>
		<g>
			<g>
				<path style="fill:#263238;" d="M598.308,373.061c0,0-0.078-0.122-0.225-0.366c-0.15-0.242-0.358-0.611-0.663-1.079
					c-0.582-0.953-1.519-2.32-2.799-4.05c-1.326-1.693-2.965-3.786-5.17-5.98c-2.179-2.208-4.823-4.631-8.13-6.852
					c-3.287-2.218-7.145-4.44-11.709-5.867c-4.535-1.49-9.667-2.247-15.165-2.322c-5.49-0.111-11.345,0.412-17.3,1.849
					c-2.982,0.693-5.978,1.659-8.929,2.905c-2.94,1.246-5.895,2.749-8.541,4.731l-0.082,0.061l-0.091-0.009
					c-19.631-1.94-41.747-4.126-65.063-6.43c-21.445-2.134-41.874-4.168-60.456-6.017c-0.581-0.058-1.159-0.116-1.736-0.173
					c-0.578-0.03-1.155-0.06-1.73-0.091c-1.15-0.055-2.292-0.11-3.427-0.164c-2.271-0.1-4.512-0.199-6.721-0.296
					c-4.419-0.158-8.71-0.312-12.858-0.461c-8.298-0.254-16.029-0.41-23.089-0.514c-14.118-0.203-25.546-0.225-33.442-0.27
					c-3.938-0.022-6.999-0.04-9.093-0.052c-1.029-0.011-1.817-0.02-2.365-0.026c-0.533-0.009-0.806-0.027-0.806-0.027
					s0.273-0.018,0.806-0.027c0.548-0.006,1.336-0.014,2.365-0.026c2.094-0.01,5.155-0.026,9.093-0.046
					c7.897-0.017,19.325-0.052,33.447,0.104c7.061,0.08,14.795,0.215,23.097,0.45c4.151,0.118,8.443,0.264,12.863,0.435
					c2.21,0.094,4.453,0.188,6.726,0.284c1.137,0.053,2.282,0.106,3.435,0.16c0.576,0.029,1.154,0.059,1.734,0.088
					c0.577,0.057,1.156,0.114,1.737,0.171c18.585,1.837,39.016,3.857,60.465,5.977c23.316,2.321,45.433,4.523,65.065,6.478
					l-0.172,0.052c2.728-2.037,5.688-3.527,8.663-4.785c2.978-1.251,5.999-2.218,9.003-2.909c6-1.435,11.891-1.944,17.409-1.817
					c5.517,0.09,10.705,0.871,15.267,2.39c4.594,1.457,8.469,3.71,11.762,5.958c3.314,2.25,5.955,4.7,8.127,6.932
					c2.197,2.218,3.823,4.332,5.133,6.044c1.265,1.749,2.182,3.132,2.744,4.1C598.063,372.535,598.308,373.061,598.308,373.061z"/>
			</g>
		</g>
		<g>
			<g>
				<path style="fill:#263238;" d="M477.994,399.456c0,0-0.173,0.014-0.509,0.017c-0.358-0.001-0.854-0.002-1.493-0.004
					c-1.335-0.015-3.265-0.037-5.74-0.066c-5.007-0.081-12.213-0.196-21.108-0.34c-17.841-0.337-42.453-0.803-69.636-1.317
					c-13.6-0.279-26.554-0.546-38.34-0.788c-0.737-0.016-1.468-0.031-2.196-0.046c-0.721-0.023-1.454-0.003-2.191-0.108
					c-1.484-0.172-2.794-0.84-4.078-1.338c-2.585-1.049-5.111-2.028-7.555-2.969c-4.894-1.87-9.475-3.555-13.656-5.096
					c-8.367-3.07-15.122-5.605-19.752-7.455c-2.316-0.922-4.107-1.655-5.314-2.171c-0.587-0.252-1.043-0.448-1.372-0.589
					c-0.308-0.135-0.46-0.217-0.46-0.217s0.166,0.049,0.481,0.168c0.333,0.13,0.795,0.309,1.391,0.541
					c1.244,0.484,3.042,1.183,5.348,2.08c4.65,1.791,11.421,4.272,19.805,7.298c4.19,1.519,8.779,3.185,13.683,5.039
					c2.45,0.934,4.981,1.905,7.573,2.948c1.31,0.505,2.574,1.143,3.969,1.297c0.687,0.098,1.405,0.077,2.137,0.098
					c0.727,0.014,1.459,0.027,2.196,0.041c11.786,0.23,24.741,0.482,38.341,0.747c27.182,0.574,51.792,1.093,69.633,1.47
					c8.894,0.213,16.099,0.385,21.105,0.505c2.474,0.071,4.403,0.126,5.738,0.164c0.639,0.024,1.135,0.042,1.492,0.056
					C477.822,399.434,477.994,399.456,477.994,399.456z"/>
			</g>
		</g>
		<g>
			<g>
				<path style="fill:#FF725E;" d="M466.707,301.263c-1.837,3.771-3.854,9.345-3.48,15.127c0.244,3.767,3.345,6.715,7.12,6.743
					l17.576,0.131c2.586,0.019,4.937-1.806,5.271-4.371c0.109-0.837,0.01-1.744-0.446-2.675c-1.827-3.723-3.35-3.016-3.35-3.016
					s-5.32-10.98-13.412-15.147C472.595,296.309,468.377,297.833,466.707,301.263z"/>
			</g>
		</g>
		<g>
			<g>
				<g>
					<path style="fill:#263238;" d="M484.904,323.241c0.028,0.067,0.697-0.126,1.596-0.774c0.862-0.642,2.086-1.749,2.552-3.458
						c0.448-1.661,0.355-3.181,0.358-4.249c-0.019-1.078-0.073-1.746-0.157-1.748c-0.084-0.003-0.182,0.66-0.273,1.734
						c-0.11,1.071-0.098,2.572-0.514,4.097c-0.404,1.513-1.473,2.588-2.235,3.289C485.444,322.832,484.862,323.157,484.904,323.241z
						"/>
				</g>
			</g>
		</g>
		<g>
			<g>
				<g>
					<path style="fill:#FFFFFF;" d="M486.229,310.883c0.066-0.029-0.237-0.932-0.978-2.278c-0.737-1.344-1.961-3.105-3.629-4.764
						c-1.672-1.655-3.442-2.866-4.792-3.592c-1.352-0.731-2.257-1.026-2.285-0.96c-0.097,0.174,3.393,1.717,6.649,4.985
						C484.485,307.503,486.056,310.981,486.229,310.883z"/>
				</g>
			</g>
		</g>
		<g>
			<g>
				<path style="fill:#455A64;" d="M350.574,265.723c0.018-0.003,0.069,0.181,0.149,0.534c0.086,0.412,0.193,0.924,0.324,1.551
					c0.268,1.349,0.639,3.304,1.073,5.725c0.867,4.841,2.012,11.538,3.114,18.961c1.104,7.425,1.948,14.172,2.377,19.075
					c0.121,1.224,0.194,2.336,0.252,3.312c0.062,0.976,0.118,1.816,0.121,2.505c0.008,0.64,0.014,1.164,0.019,1.585
					c-0.001,0.362-0.011,0.553-0.029,0.553c-0.018,0-0.044-0.189-0.076-0.55c-0.031-0.419-0.07-0.94-0.117-1.578
					c-0.034-0.685-0.119-1.522-0.209-2.493c-0.086-0.972-0.184-2.078-0.328-3.298c-0.522-4.884-1.422-11.615-2.526-19.035
					c-1.101-7.418-2.188-14.121-2.962-18.976c-0.375-2.373-0.684-4.32-0.91-5.751c-0.092-0.633-0.167-1.151-0.228-1.567
					C350.573,265.916,350.557,265.726,350.574,265.723z"/>
			</g>
		</g>
		<g style="opacity:0.2;">
			<path d="M139.543,322.796l21.139-12.539l0.61-3.812c8.205,0.814,18.166,1.59,20.525,2.533
				C181.821,309.62,155.822,317.858,139.543,322.796z"/>
		</g>
		<g style="opacity:0.2;">
			<path d="M623.91,351.251l11.295,9.59l12.306,1.934l0.009,10.942l-18.131-8.966C627.16,359.55,625.123,354.685,623.91,351.251z"/>
		</g>
		<g>
			<g>
				<path style="fill:#263238;" d="M623.787,351.251c-0.004,0.008-0.101-0.025-0.286-0.099c-0.211-0.087-0.481-0.198-0.819-0.337
					c-0.75-0.32-1.798-0.767-3.131-1.335c-2.752-1.178-6.675-2.856-11.508-4.925c-4.866-2.06-10.666-4.503-17.163-7.065
					c-3.256-1.248-6.677-2.605-10.305-3.643c-1.822-0.459-3.739-0.74-5.672-1.072c-1.939-0.306-3.906-0.617-5.896-0.931
					c-15.946-2.434-30.406-4.491-40.865-6.024c-5.202-0.766-9.424-1.387-12.385-1.822c-1.433-0.221-2.559-0.394-3.364-0.518
					c-0.36-0.061-0.648-0.109-0.873-0.147c-0.196-0.036-0.296-0.059-0.295-0.068c0.001-0.009,0.104-0.004,0.302,0.015
					c0.227,0.025,0.517,0.057,0.88,0.096c0.808,0.101,1.939,0.242,3.378,0.421c2.967,0.397,7.197,0.962,12.409,1.659
					c10.473,1.44,24.94,3.439,40.893,5.874c1.992,0.315,3.961,0.627,5.901,0.935c1.935,0.334,3.855,0.617,5.718,1.09
					c3.683,1.061,7.089,2.426,10.351,3.69c6.496,2.59,12.282,5.069,17.132,7.173c4.848,2.108,8.753,3.855,11.445,5.078
					c1.317,0.607,2.352,1.084,3.092,1.425c0.329,0.159,0.592,0.285,0.798,0.384C623.701,351.193,623.791,351.243,623.787,351.251z"
					/>
			</g>
		</g>
		<g>
			<g>
				<g>
					<g>
						<g>
							<g>
								<g>
									<g>
										<g>
											<g>
												<g>
													<g>
														<path style="fill:#263238;" d="M181.826,396.728c-0.318,22.084,17.327,40.246,39.411,40.564
															c22.085,0.319,40.246-17.326,40.565-39.411c0.318-22.085-17.326-40.246-39.411-40.564
															C200.306,356.998,182.144,374.643,181.826,396.728z"/>
													</g>
												</g>
											</g>
										</g>
									</g>
								</g>
							</g>
						</g>
					</g>
				</g>
			</g>
			<g>
				<g>
					<g>
						<g>
							<g>
								<g>
									<g>
										<g>
											<g>
												<g>
													<g>
														<path style="fill:#263238;" d="M181.833,396.625c-0.001,0.034-0.007,0.068-0.007,0.103
															c-0.318,22.084,17.327,40.246,39.411,40.564c22.085,0.319,40.246-17.326,40.565-39.411
															c0-0.035-0.004-0.069-0.004-0.103L181.833,396.625z"/>
													</g>
												</g>
											</g>
										</g>
									</g>
								</g>
							</g>
						</g>
					</g>
				</g>
			</g>
			<g>
				<g>
					<g>
						<g>
							<g>
								<g>
									<g>
										<g>
											<g>
												<g>
													<g>
														<path style="fill:#FAFAFA;" d="M193.74,396.899c-0.224,15.505,12.164,28.255,27.669,28.479
															c15.505,0.224,28.256-12.164,28.479-27.669c0.224-15.505-12.164-28.255-27.669-28.479
															C206.713,369.007,193.963,381.395,193.74,396.899z"/>
													</g>
												</g>
											</g>
										</g>
									</g>
								</g>
							</g>
						</g>
					</g>
				</g>
			</g>
			<g>
				<g>
					<g>
						<g>
							<g>
								<g>
									<g>
										<g>
											<g>
												<g>
													<g>
														<path style="fill:#E0E0E0;" d="M222.218,369.23c-15.505-0.224-28.255,12.164-28.479,27.669l56.148,0.81
															C250.111,382.204,237.723,369.454,222.218,369.23z"/>
													</g>
												</g>
											</g>
										</g>
									</g>
								</g>
							</g>
						</g>
					</g>
				</g>
			</g>
			<g>
				<g>
					<g>
						<g>
							<g>
								<g>
									<g>
										<g>
											<g>
												<g>
													<g>
														<path style="fill:#263238;" d="M204.712,397.058c-0.136,9.445,7.41,17.212,16.854,17.348
															c9.445,0.136,17.212-7.41,17.349-16.855c0.136-9.445-7.41-17.212-16.855-17.348
															C212.615,380.067,204.848,387.613,204.712,397.058z"/>
													</g>
												</g>
											</g>
										</g>
									</g>
								</g>
							</g>
						</g>
					</g>
				</g>
			</g>
		</g>
		<g>
			<g>
				<g>
					<g>
						<g>
							<g>
								<g>
									<g>
										<g>
											<g>
												<g>
													<g>
														
															<ellipse transform="matrix(0.9999 -0.0124 0.0124 0.9999 -4.8779 6.8761)" style="fill:#263238;" cx="552.776" cy="397.304" rx="39.992" ry="39.992"/>
													</g>
												</g>
											</g>
										</g>
									</g>
								</g>
							</g>
						</g>
					</g>
				</g>
			</g>
			<g>
				<g>
					<g>
						<g>
							<g>
								<g>
									<g>
										<g>
											<g>
												<g>
													<g>
														<path style="fill:#263238;" d="M512.795,396.625c-0.001,0.034-0.006,0.068-0.007,0.103
															c-0.318,22.084,17.326,40.246,39.411,40.564c22.085,0.319,40.246-17.326,40.565-39.411
															c0-0.035-0.004-0.069-0.004-0.103L512.795,396.625z"/>
													</g>
												</g>
											</g>
										</g>
									</g>
								</g>
							</g>
						</g>
					</g>
				</g>
			</g>
			<g>
				<g>
					<g>
						<g>
							<g>
								<g>
									<g>
										<g>
											<g>
												<g>
													<g>
														<path style="fill:#FAFAFA;" d="M524.702,396.899c-0.224,15.505,12.164,28.255,27.669,28.479
															c15.505,0.224,28.256-12.164,28.479-27.669c0.224-15.505-12.164-28.255-27.669-28.479
															C537.676,369.007,524.926,381.395,524.702,396.899z"/>
													</g>
												</g>
											</g>
										</g>
									</g>
								</g>
							</g>
						</g>
					</g>
				</g>
			</g>
			<g>
				<g>
					<g>
						<g>
							<g>
								<g>
									<g>
										<g>
											<g>
												<g>
													<g>
														<path style="fill:#E0E0E0;" d="M553.181,369.23c-15.505-0.224-28.255,12.164-28.479,27.669l56.148,0.81
															C581.074,382.204,568.686,369.454,553.181,369.23z"/>
													</g>
												</g>
											</g>
										</g>
									</g>
								</g>
							</g>
						</g>
					</g>
				</g>
			</g>
			<g>
				<g>
					<g>
						<g>
							<g>
								<g>
									<g>
										<g>
											<g>
												<g>
													<g>
														<path style="fill:#263238;" d="M535.675,397.058c-0.136,9.445,7.41,17.212,16.854,17.348
															c9.445,0.136,17.212-7.41,17.349-16.855c0.136-9.445-7.411-17.212-16.855-17.348
															C543.578,380.067,535.811,387.613,535.675,397.058z"/>
													</g>
												</g>
											</g>
										</g>
									</g>
								</g>
							</g>
						</g>
					</g>
				</g>
			</g>
		</g>
		<g>
			<g>
				<g>
					<path style="fill:#FFFFFF;" d="M401.745,307.279c-0.065-0.128,7.344-4.003,16.546-8.653c9.205-4.652,16.717-8.317,16.782-8.189
						c0.065,0.128-7.342,4.002-16.547,8.654C409.324,303.741,401.81,307.407,401.745,307.279z"/>
				</g>
			</g>
			<g>
				<g>
					<path style="fill:#FFFFFF;" d="M391.427,306.265c-0.067-0.127,6.969-3.958,15.713-8.555c8.747-4.599,15.889-8.222,15.956-8.095
						c0.067,0.127-6.967,3.957-15.714,8.556C398.638,302.768,391.494,306.392,391.427,306.265z"/>
				</g>
			</g>
			<g>
				<g>
					<path style="fill:#FFFFFF;" d="M288.323,304.549c-0.012-0.034,0.503-0.262,1.444-0.646c1.03-0.411,2.376-0.949,3.999-1.596
						c3.459-1.381,8.081-3.227,13.189-5.267c5.087-2.097,9.689-3.994,13.132-5.413c1.615-0.666,2.955-1.219,3.98-1.642
						c0.943-0.381,1.472-0.576,1.486-0.543s-0.486,0.29-1.405,0.728c-0.918,0.439-2.256,1.052-3.916,1.794
						c-3.32,1.485-7.938,3.47-13.082,5.558c-5.143,2.086-9.837,3.88-13.254,5.128c-1.708,0.625-3.095,1.117-4.059,1.442
						C288.874,304.419,288.336,304.583,288.323,304.549z"/>
				</g>
			</g>
			<g>
				<g>
					<path style="fill:#FFFFFF;" d="M297.853,293.579c-0.059-0.131,3.775-1.979,8.562-4.128c4.789-2.149,8.717-3.784,8.776-3.653
						c0.059,0.131-3.774,1.979-8.563,4.128C301.841,292.075,297.911,293.71,297.853,293.579z"/>
				</g>
			</g>
		</g>
		<g>
			<g>
				<path style="fill:#263238;" d="M647.521,373.718c-0.036,0-0.071-0.56-0.103-1.574c-0.022-1.107-0.051-2.552-0.086-4.293
					c-0.046-1.802,0.001-3.995-0.108-6.343c-0.204-2.344-1.942-4.478-3.645-6.597c-1.727-2.122-3.801-3.766-5.658-5.26
					c-1.882-1.473-3.631-2.733-5.108-3.78c-1.429-0.993-2.614-1.818-3.522-2.449c-0.834-0.576-1.291-0.901-1.272-0.932
					c0.019-0.031,0.513,0.237,1.382,0.762c0.868,0.526,2.112,1.306,3.62,2.315c1.508,1.01,3.284,2.244,5.194,3.704
					c1.883,1.482,3.991,3.129,5.766,5.308c0.879,1.074,1.72,2.145,2.412,3.276c0.701,1.115,1.214,2.364,1.308,3.605
					c0.087,2.439-0.001,4.566-0.001,6.389c-0.032,1.742-0.059,3.187-0.079,4.293C647.591,373.157,647.557,373.718,647.521,373.718z"
					/>
			</g>
		</g>
	</g>
</g>
</svg>
